<svg width="24" height="24" viewBox="0 0 24 24" fill="none" xmlns="http://www.w3.org/2000/svg">
<path d="M5.81299 5.53906C5.87994 5.53648 5.94546 5.55877 5.99756 5.60059L11.646 11.2568L11.9995 11.6113L12.353 11.2578L18.0063 5.60547C18.0578 5.56568 18.1217 5.54435 18.187 5.54688C18.2568 5.54968 18.3232 5.57857 18.3726 5.62793C18.4219 5.6773 18.4508 5.74372 18.4536 5.81348C18.4562 5.87943 18.4337 5.94341 18.3931 5.99512L12.7427 11.6475L12.3892 12.001L18.3931 18.0049C18.434 18.0567 18.4562 18.1213 18.4536 18.1875C18.4508 18.2573 18.4219 18.3237 18.3726 18.373C18.3232 18.4224 18.2568 18.4513 18.187 18.4541C18.1196 18.4567 18.0537 18.434 18.0015 18.3916L12.0005 12.3906L11.647 12.7432L5.96924 18.4131L5.95459 18.4268L5.94189 18.4424C5.91707 18.4712 5.88632 18.4951 5.85205 18.5117C5.8177 18.5283 5.77981 18.5376 5.7417 18.5391C5.70363 18.5405 5.66585 18.5334 5.63037 18.5195C5.59472 18.5056 5.56174 18.4851 5.53467 18.458C5.5076 18.4309 5.48711 18.3979 5.47314 18.3623C5.45927 18.3268 5.4522 18.289 5.45361 18.251C5.45509 18.2129 5.46441 18.175 5.48096 18.1406C5.49754 18.1064 5.52143 18.0756 5.55029 18.0508L5.56494 18.0381L5.57861 18.0244L11.2563 12.3545L11.6108 12.001L11.2573 11.6475L5.60791 5.99023C5.56611 5.93814 5.5438 5.87261 5.54639 5.80566C5.54919 5.73592 5.57808 5.66948 5.62744 5.62012C5.67683 5.57076 5.74322 5.54183 5.81299 5.53906Z" fill="#111111" stroke="black"/>
</svg>
